#!OML:ASF I:\Actors\actors\Patient Classification 2\Patient 1\Session 1\actor1.ASF
:FULLY-SPECIFIED
:DEGREES
121
root -0.619864 18.7554 4.66878 4.24018 -1.38346 -2.47142
lowerback -2.69008 1.31224 -0.418635
upperback -2.78628 1.7572 0.126966
thorax -1.36476 0.887536 0.389505
lowerneck -10.2418 -2.54463 -0.808399
upperneck 29.4142 -4.1446 2.20535
head 11.2773 -1.70739 0.425461
rclavicle 7.92654e-015 -4.37326e-015
rhumerus -51.9929 5.33539 -92.0825
rradius 51.9939
rwrist 1.19503
rhand -7.59052 -43.9803
rfingers 7.12502
rthumb 18.3028 -73.1392
lclavicle 7.92654e-015 -4.37326e-015
lhumerus -41.735 1.74859 87.7376
lradius 37.265
lwrist -8.84861
lhand -11.1188 -30.7192
lfingers 7.12502
lthumb 14.906 -1.27554
rfemur 3.52175 -11.2414 15.5116
rtibia 7.95139e-016
rfoot -7.98998 -0.978474
rtoes -4.44525
lfemur -7.65709 -6.89827 -12.0198
ltibia 21.8294
lfoot -22.1678 10.8245
ltoes -54.7967
122
root -0.615418 18.754 4.66075 4.09566 -1.32891 -2.4083
lowerback -2.53036 1.35379 -0.42911
upperback -2.692 1.8117 0.0613312
thorax -1.356 0.914098 0.326227
lowerneck -10.3746 -2.37875 -0.58045
upperneck 30.2294 -3.91298 1.97682
head 11.6072 -1.59203 0.328999
rclavicle 2.66868e-014 4.77083e-015
rhumerus -52.4586 6.50816 -93.0245
rradius 54.8603
rwrist -0.966196
rhand -8.28346 -44.5263
rfingers 7.12502
rthumb 17.6361 -73.7464
lclavicle 2.66868e-014 4.77083e-015
lhumerus -41.6382 1.30203 87.6689
lradius 37.7995
lwrist -8.40757
lhand -10.169 -30.3846
lfingers 7.12502
lthumb 15.8209 -1.0111
rfemur 3.66617 -11.2896 15.3978
rtibia -1.11319e-014
rfoot -8.00938 -0.980957
rtoes -4.50197
lfemur -7.5667 -6.96677 -12.1181
ltibia 21.8615
lfoot -22.1463 10.8228
ltoes -54.7972
123
root -0.612491 18.7523 4.65282 3.94223 -1.30483 -2.36027
lowerback -2.37628 1.41003 -0.457408
upperback -2.5696 1.88625 0.0178068
thorax -1.31666 0.951086 0.296233
lowerneck -10.5262 -2.22586 -0.351573
upperneck 31.0217 -3.71789 1.81526
head 11.9416 -1.48504 0.251767
rclavicle 2.1183e-014 -6.75868e-015
rhumerus -52.9442 7.84634 -94.0387
rradius 58.2351
rwrist -3.60463
rhand -8.2209 -45.7015
rfingers 7.12502
rthumb 17.6963 -74.9162
lclavicle 2.1183e-014 -6.75868e-015
lhumerus -41.5346 0.862325 87.5882
lradius 38.549
lwrist -7.70932
lhand -8.72693 -29.9357
lfingers 7.12502
lthumb 17.2093 -0.677704
rfemur 3.80977 -11.3048 15.3069
rtibia -1.51076e-014
rfoot -8.02711 -0.986025
rtoes -4.56377
lfemur -7.45477 -6.98231 -12.1992
ltibia 21.8901
lfoot -22.1211 10.8312
ltoes -54.8019
124
root -0.608409 18.7517 4.64485 3.83975 -1.30627 -2.34224
lowerback -2.27634 1.47003 -0.426567
upperback -2.44882 1.96523 -0.0319711
thorax -1.24649 0.989283 0.228216
lowerneck -10.541 -2.0778 -0.0197395
upperneck 31.6016 -3.52602 1.59414
head 12.1645 -1.37894 0.1356
rclavicle -4.26145e-015 1.98785e-015
rhumerus -53.3479 9.29896 -95.138
rradius 61.9599
rwrist -6.6693
rhand -7.7658 -46.7493
rfingers 7.12502
rthumb 18.1342 -75.924
lclavicle -4.26145e-015 1.98785e-015
lhumerus -41.5003 0.433742 87.4439
lradius 39.5379
lwrist -6.8636
lhand -7.17054 -29.5546
lfingers 7.12502
lthumb 18.7068 -0.434073
rfemur 3.88851 -11.2964 15.2577
rtibia 3.18055e-015
rfoot -8.03161 -1.00883
rtoes -4.56338
lfemur -7.40735 -6.88423 -12.2403
ltibia 21.959
lfoot -22.1155 10.7359
ltoes -54.8099
125
root -0.603012 18.7532 4.63318 3.79934 -1.3134 -2.3408
lowerback -2.20763 1.52535 -0.395968
upperback -2.33539 2.03823 -0.0742072
thorax -1.16645 1.02465 0.168749
lowerneck -10.4968 -1.9358 0.225469
upperneck 32.0592 -3.33858 1.44334
head 12.3323 -1.27812 0.0608082
rclavicle -6.34869e-015 -1.98785e-015
rhumerus -53.5596 10.7442 -96.2458
rradius 65.949
rwrist -9.95049
rhand -6.96469 -47.4816
rfingers 7.12502
rthumb 18.9048 -76.583
lclavicle -6.34869e-015 -1.98785e-015
lhumerus -41.6016 -0.117391 87.3024
lradius 40.8276
lwrist -5.87148
lhand -6.06113 -29.3135
lfingers 7.12502
lthumb 19.7736 -0.299299
rfemur 3.88389 -11.2861 15.2373
rtibia 3.97569e-015
rfoot -7.98817 -1.04919
rtoes -4.66451
lfemur -7.49041 -6.76403 -12.2543
ltibia 22.1349
lfoot -22.1508 10.5824
ltoes -54.7515
